<svg width="50" height="51" viewBox="0 0 50 51" fill="none" xmlns="http://www.w3.org/2000/svg">
<path d="M25 5.70837C19.7509 5.70837 14.7168 7.79356 11.0052 11.5052C7.2935 15.2169 5.20831 20.251 5.20831 25.5C5.20831 30.7491 7.2935 35.7832 11.0052 39.4949C14.7168 43.2065 19.7509 45.2917 25 45.2917C30.2491 45.2917 35.2831 43.2065 38.9948 39.4949C42.7065 35.7832 44.7916 30.7491 44.7916 25.5C44.7916 20.251 42.7065 15.2169 38.9948 11.5052C35.2831 7.79356 30.2491 5.70837 25 5.70837Z" fill="#039BE5"/>
<path d="M27.6792 30.7458H32.801L33.6052 25.5427H27.6781V22.6989C27.6781 20.5375 28.3844 18.6208 30.4062 18.6208H33.6552V14.0802C33.0844 14.0031 31.8771 13.8344 29.5958 13.8344C24.8323 13.8344 22.0396 16.35 22.0396 22.0812V25.5427H17.1427V30.7458H22.0396V45.0469C23.0094 45.1927 23.9917 45.2916 25 45.2916C25.9114 45.2916 26.801 45.2083 27.6792 45.0896V30.7458Z" fill="white"/>
</svg>
