<svg width="50" height="51" viewBox="0 0 50 51" fill="none" xmlns="http://www.w3.org/2000/svg">
<path d="M35.4344 44.2396L14.601 44.2594C10.0177 44.2636 6.26457 40.5177 6.25936 35.9344L6.23957 15.1011C6.2354 10.5178 9.98123 6.76463 14.5646 6.75942L35.3979 6.73963C39.9812 6.73546 43.7344 10.4813 43.7396 15.0646L43.7594 35.898C43.7646 40.4823 40.0177 44.2355 35.4344 44.2396Z" fill="url(#paint0_radial_133_1327)"/>
<path d="M35.4344 44.2396L14.601 44.2594C10.0177 44.2636 6.26457 40.5177 6.25936 35.9344L6.23957 15.1011C6.2354 10.5178 9.98123 6.76463 14.5646 6.75942L35.3979 6.73963C39.9812 6.73546 43.7344 10.4813 43.7396 15.0646L43.7594 35.898C43.7646 40.4823 40.0177 44.2355 35.4344 44.2396Z" fill="url(#paint1_radial_133_1327)"/>
<path d="M25 32.7917C20.9802 32.7917 17.7083 29.5209 17.7083 25.5C17.7083 21.4792 20.9802 18.2084 25 18.2084C29.0198 18.2084 32.2916 21.4792 32.2916 25.5C32.2916 29.5209 29.0198 32.7917 25 32.7917ZM25 20.2917C22.1281 20.2917 19.7916 22.6282 19.7916 25.5C19.7916 28.3719 22.1281 30.7084 25 30.7084C27.8719 30.7084 30.2083 28.3719 30.2083 25.5C30.2083 22.6282 27.8719 20.2917 25 20.2917Z" fill="white"/>
<path d="M32.8125 19.25C33.6754 19.25 34.375 18.5504 34.375 17.6875C34.375 16.8246 33.6754 16.125 32.8125 16.125C31.9496 16.125 31.25 16.8246 31.25 17.6875C31.25 18.5504 31.9496 19.25 32.8125 19.25Z" fill="white"/>
<path d="M31.25 39.0417H18.75C14.7302 39.0417 11.4583 35.7709 11.4583 31.75V19.25C11.4583 15.2292 14.7302 11.9584 18.75 11.9584H31.25C35.2698 11.9584 38.5416 15.2292 38.5416 19.25V31.75C38.5416 35.7709 35.2698 39.0417 31.25 39.0417ZM18.75 14.0417C15.8781 14.0417 13.5416 16.3782 13.5416 19.25V31.75C13.5416 34.6219 15.8781 36.9584 18.75 36.9584H31.25C34.1219 36.9584 36.4583 34.6219 36.4583 31.75V19.25C36.4583 16.3782 34.1219 14.0417 31.25 14.0417H18.75Z" fill="white"/>
<defs>
<radialGradient id="paint0_radial_133_1327" cx="0" cy="0" r="1" gradientUnits="userSpaceOnUse" gradientTransform="translate(20.1875 44.2865) scale(46.7698 46.7698)">
<stop stop-color="#FFDD55"/>
<stop offset="0.328" stop-color="#FF543F"/>
<stop offset="0.348" stop-color="#FC5245"/>
<stop offset="0.504" stop-color="#E64771"/>
<stop offset="0.643" stop-color="#D53E91"/>
<stop offset="0.761" stop-color="#CC39A4"/>
<stop offset="0.841" stop-color="#C837AB"/>
</radialGradient>
<radialGradient id="paint1_radial_133_1327" cx="0" cy="0" r="1" gradientUnits="userSpaceOnUse" gradientTransform="translate(12.2771 6.27119) scale(31.0552 20.6921)">
<stop stop-color="#4168C9"/>
<stop offset="0.999" stop-color="#4168C9" stop-opacity="0"/>
</radialGradient>
</defs>
</svg>
