<svg width="50" height="51" viewBox="0 0 50 51" fill="none" xmlns="http://www.w3.org/2000/svg">
<path d="M43.75 39.0417C43.75 41.9187 41.4187 44.25 38.5417 44.25H11.4583C8.58229 44.25 6.25 41.9187 6.25 39.0417V11.9583C6.25 9.08125 8.58229 6.75 11.4583 6.75H38.5417C41.4187 6.75 43.75 9.08125 43.75 11.9583V39.0417Z" fill="#0288D1"/>
<path d="M12.5 20.2917H17.7083V38H12.5V20.2917ZM15.0885 18.2083H15.0594C13.5052 18.2083 12.5 17.05 12.5 15.6031C12.5 14.125 13.5365 13 15.1187 13C16.7031 13 17.6792 14.125 17.7083 15.6031C17.7083 17.049 16.7031 18.2083 15.0885 18.2083ZM37.5 38H32.2917V28.5219C32.2917 26.2323 31.0156 24.6698 28.9667 24.6698C27.4031 24.6698 26.5573 25.724 26.1469 26.7427C25.9969 27.1073 26.0417 28.1156 26.0417 28.625V38H20.8333V20.2917H26.0417V23.0167C26.7927 21.8542 27.9688 20.2917 30.9771 20.2917C34.7042 20.2917 37.499 22.6354 37.499 27.8687L37.5 38Z" fill="white"/>
</svg>
