<svg width="50" height="51" viewBox="0 0 50 51" fill="none" xmlns="http://www.w3.org/2000/svg">
<path d="M45 35.8125C44.5834 38 42.8125 39.6667 40.625 39.9792C37.1875 40.5 31.4584 41.125 25 41.125C18.6459 41.125 12.9167 40.5 9.37502 39.9792C7.18752 39.6667 5.41669 38 5.00002 35.8125C4.58335 33.4167 4.16669 29.875 4.16669 25.5C4.16669 21.125 4.58335 17.5833 5.00002 15.1875C5.41669 13 7.18752 11.3333 9.37502 11.0208C12.8125 10.5 18.5417 9.875 25 9.875C31.4584 9.875 37.0834 10.5 40.625 11.0208C42.8125 11.3333 44.5834 13 45 15.1875C45.4167 17.5833 45.9375 21.125 45.9375 25.5C45.8334 29.875 45.4167 33.4167 45 35.8125Z" fill="#FF3D00"/>
<path d="M20.8333 32.7917V18.2084L33.3333 25.5L20.8333 32.7917Z" fill="white"/>
</svg>
